<svg xmlns="http://www.w3.org/2000/svg" width="220" height="300" viewBox="0 0 220 300" role="img" aria-label="Mascote Lobao Metal Vida">
  <defs>
    <radialGradient id="furLight" cx="42%" cy="28%" r="68%">
      <stop offset="0" stop-color="#f7f7f7"/>
      <stop offset=".45" stop-color="#d7d9dc"/>
      <stop offset="1" stop-color="#6f747c"/>
    </radialGradient>
    <linearGradient id="furDark" x1="0" y1="0" x2="1" y2="1">
      <stop offset="0" stop-color="#333943"/>
      <stop offset=".5" stop-color="#90949b"/>
      <stop offset="1" stop-color="#222731"/>
    </linearGradient>
    <linearGradient id="shirt" x1="0" y1="0" x2="1" y2="1">
      <stop offset="0" stop-color="#1e334d"/>
      <stop offset=".58" stop-color="#0f1c2c"/>
      <stop offset="1" stop-color="#07101d"/>
    </linearGradient>
    <linearGradient id="orange" x1="0" y1="0" x2="1" y2="1">
      <stop offset="0" stop-color="#ff8a21"/>
      <stop offset="1" stop-color="#e50914"/>
    </linearGradient>
    <linearGradient id="steel" x1="0" y1="0" x2="1" y2="1">
      <stop offset="0" stop-color="#ffffff"/>
      <stop offset=".45" stop-color="#aab3bd"/>
      <stop offset="1" stop-color="#48515e"/>
    </linearGradient>
    <filter id="softShadow" x="-30%" y="-20%" width="160%" height="150%">
      <feDropShadow dx="0" dy="12" stdDeviation="8" flood-color="#000000" flood-opacity=".38"/>
    </filter>
    <filter id="innerPop" x="-20%" y="-20%" width="140%" height="140%">
      <feDropShadow dx="0" dy="3" stdDeviation="2" flood-color="#ffffff" flood-opacity=".22"/>
      <feDropShadow dx="0" dy="7" stdDeviation="4" flood-color="#000000" flood-opacity=".26"/>
    </filter>
  </defs>

  <ellipse cx="110" cy="282" rx="70" ry="13" fill="#000" opacity=".28"/>

  <g filter="url(#softShadow)">
    <path d="M74 150c-18 9-30 28-33 52l29 12c8-20 18-31 31-35z" fill="url(#shirt)"/>
    <path d="M146 150c18 9 30 28 33 52l-29 12c-8-20-18-31-31-35z" fill="url(#shirt)"/>

    <path d="M72 145c9-16 67-16 76 0 14 26 16 70 5 103H67c-11-33-9-77 5-103z" fill="url(#shirt)" stroke="#24384e" stroke-width="2"/>
    <path d="M81 148c13 14 46 14 59 0l-8 20c-13 8-31 8-44 0z" fill="#152437"/>
    <path d="M107 160h7v85h-7z" fill="#263b56" opacity=".7"/>
    <path d="M91 156l16 16-10 9-23-28zM129 156l-16 16 10 9 23-28z" fill="url(#orange)"/>
    <path d="M124 193l15 8-12 14-15-8z" fill="#0a111b" stroke="#36475a" stroke-width="1"/>
    <path d="M127 199l5 2-7 8-5-3z" fill="url(#orange)"/>

    <path d="M69 242c-6 15-8 27-5 36h35c3-13 1-25-6-38z" fill="#21304a"/>
    <path d="M121 240c-7 13-9 25-6 38h35c3-9 1-21-5-36z" fill="#21304a"/>
    <path d="M58 278c3-8 20-9 44-3l1 10H58zM114 275c24-6 41-5 44 3v7h-45z" fill="#2b2018"/>
    <path d="M64 278c10 2 22 2 35 0M119 278c13 2 25 2 35 0" fill="none" stroke="#8f5a2b" stroke-width="2" opacity=".65"/>

    <path d="M48 201c-12 17-13 36-3 45 8 7 21 3 29-9 5-8 10-17 15-28l-27-14z" fill="url(#furDark)"/>
    <path d="M171 199c15 13 21 32 13 43-7 10-22 8-32-2-8-8-15-19-21-32l28-13z" fill="url(#furDark)"/>
    <path d="M170 206c15-6 28-3 31 8 2 7-3 11-9 10 6 6 5 14-2 17-7 3-17-3-27-18z" fill="url(#furLight)" stroke="#4c5360" stroke-width="1.4"/>
    <path d="M176 210l14 4M171 219l17 10" stroke="#3b404a" stroke-width="3" stroke-linecap="round" opacity=".55"/>

    <g transform="translate(35 202) rotate(-10)">
      <rect x="0" y="0" width="48" height="62" rx="6" fill="#eef4fb" stroke="#8592a0" stroke-width="2"/>
      <path d="M8 14h32M8 26h28M8 38h34M8 50h22" stroke="#526273" stroke-width="3" stroke-linecap="round"/>
      <path d="M0 10h48" stroke="#ff5b1a" stroke-width="3"/>
    </g>

    <path d="M69 38L39 3c-3-3-8-1-8 4l6 54z" fill="url(#furDark)" stroke="#1f232a" stroke-width="2"/>
    <path d="M151 38l30-35c3-3 8-1 8 4l-6 54z" fill="url(#furDark)" stroke="#1f232a" stroke-width="2"/>
    <path d="M62 39L43 16l4 34zM158 39l19-23-4 34z" fill="#f0a08f" opacity=".8"/>

    <path d="M110 17c-42 0-73 29-73 70 0 47 32 79 73 79s73-32 73-79c0-41-31-70-73-70z" fill="url(#furDark)" stroke="#1f232a" stroke-width="2"/>
    <path d="M76 75c10-30 58-30 68 0 8 24-4 58-34 69-30-11-42-45-34-69z" fill="url(#furLight)"/>
    <path d="M78 34c10 9 20 19 25 31-19-5-34-2-47 8 2-17 10-30 22-39zM142 34c-10 9-20 19-25 31 19-5 34-2 47 8-2-17-10-30-22-39z" fill="#222832" opacity=".72"/>
    <path d="M86 108c9 10 39 10 48 0-4 22-44 22-48 0z" fill="#2b1112"/>
    <path d="M94 113c10 6 22 6 32 0-3 11-29 11-32 0z" fill="#ff5f69"/>
    <path d="M98 95c5-6 19-6 24 0-3 9-21 9-24 0z" fill="#111"/>
    <ellipse cx="83" cy="83" rx="12" ry="15" fill="#fff"/>
    <ellipse cx="137" cy="83" rx="12" ry="15" fill="#fff"/>
    <circle cx="86" cy="85" r="6" fill="#8a531f"/>
    <circle cx="134" cy="85" r="6" fill="#8a531f"/>
    <circle cx="88" cy="82" r="2" fill="#fff"/>
    <circle cx="136" cy="82" r="2" fill="#fff"/>
    <path d="M69 68c13-9 26-7 36 1M151 68c-13-9-26-7-36 1" stroke="#15191f" stroke-width="5" stroke-linecap="round"/>

    <path d="M55 65c-4-34 21-57 55-57s59 23 55 57" fill="none" stroke="#141820" stroke-width="7" stroke-linecap="round"/>
    <circle cx="50" cy="83" r="12" fill="#1d2430" stroke="url(#steel)" stroke-width="4"/>
    <circle cx="170" cy="83" r="12" fill="#1d2430" stroke="url(#steel)" stroke-width="4"/>
    <path d="M170 94c0 24-11 36-31 39" fill="none" stroke="#15191f" stroke-width="5" stroke-linecap="round"/>
    <circle cx="136" cy="134" r="5" fill="#171b22" stroke="#e9edf2" stroke-width="2"/>

    <g filter="url(#innerPop)" transform="translate(74 25) rotate(-5)">
      <rect x="0" y="0" width="73" height="24" rx="8" fill="#111720" stroke="#d7e2ef" stroke-width="2"/>
      <path d="M8 3h24l-7 18H4zM41 3h24l-7 18H37z" fill="#ff9b24"/>
      <path d="M10 3h20l-8 18H2zM43 3h20l-8 18H35z" fill="#ffe2a2" opacity=".32"/>
    </g>
  </g>
</svg>
